# Blender 4.2.2 LTS
# www.blender.org
mtllib dod.mtl
o dodecahedron
v 0.332694 -0.117012 -0.485410
v 0.200377 0.290217 -0.485410
v -0.359845 -0.116921 -0.465662
v -0.227636 0.290274 -0.473205
v -0.013542 -0.368637 -0.473205
v 0.563460 0.183079 0.094841
v 0.557091 -0.183227 -0.126795
v 0.342998 0.475684 -0.126795
v -0.200377 -0.290217 0.485410
v -0.332694 0.117012 0.485410
v 0.359845 0.116921 0.465662
v 0.227636 -0.290274 0.473205
v 0.013542 0.368637 0.473205
v -0.563460 -0.183079 -0.094841
v -0.557091 0.183227 0.126795
v -0.342998 -0.475684 0.126795
v 0.349541 -0.475775 0.107047
v 0.003131 0.590365 0.107047
v -0.349541 0.475775 -0.107047
v -0.003131 -0.590365 -0.107047
vn -0.0285 -0.0093 -0.9996
vn 0.8375 0.2721 -0.4738
vn 0.5129 -0.7278 -0.4553
vn 0.8631 -0.2724 0.4253
vn 0.0129 -0.8902 0.4553
vn -0.5382 -0.7276 -0.4253
vn -0.8631 0.2724 -0.4253
vn -0.0129 0.8902 -0.4553
vn 0.5382 0.7276 0.4253
vn 0.0285 0.0093 0.9996
vn -0.5129 0.7278 0.4553
vn -0.8375 -0.2721 0.4738
vt 0.080854 0.404181
vt 0.504498 0.049962
vt 0.924771 0.404310
vt 0.760870 0.977527
vt 0.239301 0.977448
vt 0.257904 0.941197
vt 0.086398 0.388666
vt 0.479147 0.056212
vt 0.893384 0.403273
vt 0.756649 0.950224
vt 0.034235 0.423231
vt 0.501416 0.129253
vt 0.973196 0.420951
vt 0.797590 0.895208
vt 0.217281 0.896617
vt 0.534760 0.029232
vt 0.986788 0.415443
vt 0.798598 0.989787
vt 0.209206 0.983681
vt 0.061392 0.377222
vt 0.393218 0.044683
vt 0.941680 0.225604
vt 0.938996 0.804972
vt 0.388875 0.982120
vt 0.051566 0.512236
vt 0.231218 0.141637
vt 0.807940 0.141396
vt 0.983668 0.603513
vt 0.515552 0.889358
vt 0.050513 0.603903
vt 0.124178 0.380427
vt 0.559986 0.021701
vt 0.975871 0.360609
vt 0.797095 0.928792
vt 0.270719 0.941041
vt 0.935624 0.225212
vt 0.921338 0.812487
vt 0.360154 0.979753
vt 0.027610 0.495853
vt 0.383270 0.029521
vt 0.982676 0.407432
vt 0.790144 0.879462
vt 0.195652 0.865001
vt 0.020769 0.384034
vt 0.507176 0.101241
vt 0.233501 0.027136
vt 0.779915 0.027052
vt 0.951624 0.627576
vt 0.511330 0.998804
vt 0.067506 0.627711
vt 0.036885 0.609773
vt 0.220142 0.129743
vt 0.807630 0.128654
vt 0.987461 0.608012
vt 0.511114 0.905360
vt 0.918237 0.322510
vt 0.903288 0.884448
vt 0.373604 0.961450
vt 0.061191 0.447103
vt 0.397792 0.052216
s 1
usemtl phong1
f 1/1/1 5/2/1 3/3/1 4/4/1 2/5/1
f 8/6/2 6/7/2 7/8/2 1/9/2 2/10/2
f 1/11/3 7/12/3 17/13/3 20/14/3 5/15/3
f 6/16/4 11/17/4 12/18/4 17/19/4 7/20/4
f 17/21/5 12/22/5 9/23/5 16/24/5 20/25/5
f 5/26/6 20/27/6 16/28/6 14/29/6 3/30/6
f 3/31/7 14/32/7 15/33/7 19/34/7 4/35/7
f 2/36/8 4/37/8 19/38/8 18/39/8 8/40/8
f 8/41/9 18/42/9 13/43/9 11/44/9 6/45/9
f 9/46/10 12/47/10 11/48/10 13/49/10 10/50/10
f 10/51/11 13/52/11 18/53/11 19/54/11 15/55/11
f 10/56/12 15/57/12 14/58/12 16/59/12 9/60/12
